<svg width="234" height="175" viewBox="0 0 234 175" fill="none" xmlns="http://www.w3.org/2000/svg">
<g clip-path="url(#clip0)">
<path d="M152 165.3H151.1C148.1 165.3 145.3 166.4 143.3 168.6C142.8 169.1 142.3 169.7 141.9 170.2L141.4 171.1C140.8 172.1 140.4 173.3 140.2 174.4H161.9C161.7 173.2 161.3 172.1 160.7 171.1C160.2 170.2 159.6 169.3 158.9 168.5C157.1 166.6 154.6 165.5 152 165.3Z" fill="white"/>
<path d="M97.4 57.3C97.3 56.5 97.2 55.7 97.1 54.8C95.9 44.6 88.8 37.5 76 33.4C61.5 29.2 46.8 25.8 31.9 23.3C14.8 20.4 5.6 17.1 4.3 13.4C1.4 24.4 5.8 33.7 17.6 41.2C11.6 41.3 5.6 40.3 0 38.1C0.3 46.4 6.8 53.2 19.5 58.4C13.9 59.7 8.2 60.1 2.5 59.5C5.8 70 14.8 75.6 29.4 76.4C24.4 79 19 80.7 13.4 81.5C20.6 89.5 30.9 92.7 44.3 91.3C40.1 94.9 35.1 97.4 29.8 98.6C40.3 104.4 52.8 105.5 67.4 101.7C64.9 105.8 61.3 109.2 57 111.4C64.1 114.6 75.9 112.9 92.3 106.2C91.5 109.3 89.7 112 87.1 113.9C94.7 113.3 102.1 111 108.7 107C109.9 112.1 112.2 116.9 115.4 121C113.2 107.9 116.1 94.5 123.3 83.4C107.6 81.1 99 72.3 97.4 57.3ZM130.7 0V16.3L142.3 11.5L130.7 0ZM193.9 171.1C193.4 170.1 192.7 169.3 191.9 168.5C190.1 166.6 187.7 165.5 185.1 165.3H184.2C181.3 165.3 178.4 166.4 176.4 168.6L175 170.2L174.5 171.1C173.9 172.1 173.5 173.3 173.4 174.4H195C194.9 173.2 194.5 172.1 193.9 171.1ZM192.6 129.1C193.6 133.9 195.8 138.4 199 142.2C202.4 146.4 207.3 149.3 213.6 150.9C220.7 123.4 219.3 103.8 209.5 92.3C203.2 97.4 198.2 103.9 194.9 111.3C192.2 117.5 191.4 123.5 192.6 129.1ZM174.6 10L170.7 9.9C153.3 9.9 138.4 14 126 22.1C113.7 30.2 107.6 40 107.6 51.4C107.6 62.8 113.7 72.6 126 80.7L127.8 81.8C115.3 109.2 114.8 134.4 126.5 157.5L134.9 174.3H136.8V174.2C137.1 172.7 137.6 171.2 138.3 169.8C138.5 169.4 138.8 169 139.1 168.7C139.6 167.9 140.3 167.1 140.9 166.4C143.6 163.6 147.4 162 151.3 162.1H152.4C155.9 162.3 159.2 163.8 161.6 166.4C162.1 166.8 162.5 167.3 162.9 167.7L163.5 168.5V168.6L164.2 169.7C164.9 171.1 165.4 172.6 165.7 174.2H169.6C169.8 172.6 170.3 171.1 171.1 169.7L171.8 168.6C172.4 167.8 173 167 173.8 166.3C176.2 163.7 179.5 162.2 183 162H185.4C188.9 162.2 192.2 163.8 194.6 166.3C195.6 167.3 196.5 168.4 197.2 169.7C198 171.1 198.5 172.6 198.7 174.2H201.6C206.5 168.4 210.2 161.7 212.6 154.5C206 153.3 200.1 149.3 194.8 142.4C188 132.2 186.9 121.3 191.5 109.6C195.9 101.1 201.8 93.4 209 87L209.1 86.8L209.4 86.7L211.8 84.6C216.5 81.1 220.9 77.2 225 73.1C230.9 66.6 233.9 59.3 233.9 51.3C233.9 39.8 227.8 30.1 215.5 22C203.9 14.7 190.4 10.7 174.6 10ZM213.9 33.2C222.9 42.3 222.9 56.9 213.9 66C204.8 75 190.2 75 181.1 66C172.1 57 172.1 42.3 181.1 33.2C190.2 24.2 204.9 24.2 213.9 33.2ZM178.9 69.7C176.7 73.7 173.7 77.3 170.2 80.2C166.8 77.2 163.9 73.7 161.7 69.7C165.2 66.9 168.1 63.6 170.3 59.7C172.4 63.6 175.4 67 178.9 69.7ZM143.1 26.5C155.9 26.5 166.3 36.8 166.3 49.6C166.3 62.4 156 72.8 143.2 72.8C130.4 72.8 120 62.5 120 49.7V49.6C119.9 37 130 26.6 142.7 26.5C142.8 26.5 142.9 26.5 143.1 26.5ZM152.8 48.3C151.2 48.3 149.7 48.9 148.5 50.1C147.4 51.2 146.8 52.7 146.8 54.2C146.8 55.8 147.4 57.3 148.5 58.4C149.6 59.6 151.1 60.2 152.8 60.2C154.4 60.2 155.9 59.6 156.9 58.4C159.2 56.2 159.3 52.6 157.1 50.3C157 50.2 157 50.2 156.9 50.1C155.8 48.9 154.3 48.2 152.8 48.3ZM192.8 50.1C190.5 47.8 186.8 47.7 184.5 50C184.4 50 184.4 50.1 184.4 50.1C183.3 51.2 182.7 52.7 182.7 54.2C182.7 55.8 183.3 57.3 184.4 58.4C186.7 60.7 190.4 60.8 192.7 58.5C192.8 58.5 192.8 58.4 192.8 58.4C193.9 57.3 194.5 55.8 194.5 54.2C194.5 52.7 193.9 51.2 192.8 50.1ZM211.2 16.6L212.6 0.6L200.7 12.1L211.2 16.6Z" fill="white"/>
</g>
<defs>
<clipPath id="clip0">
<rect width="233.9" height="174.4" fill="white"/>
</clipPath>
</defs>
</svg>
