<svg id="Layer_1" data-name="Layer 1" xmlns="http://www.w3.org/2000/svg" viewBox="0 0 488.1 448.04"><defs><style>.cls-1{fill:#fff;}</style></defs><title>Untitled-1</title><path class="cls-1" d="M356.58-191.43l-7.15-1.27-61.79-11a12.59,12.59,0,0,1-3.77-1.3l-65.45-35-.11-.05a4.24,4.24,0,0,0-4.94.9,4.26,4.26,0,0,0-.72,5l38.53,74.2a12.46,12.46,0,0,0,6.62,5.9l101.5,38.63,1,.37,1.78-4.68-8.67-3.3-15.27-5.82-5.51-2.1-9.35-3.55-5.49-2.09-8.92-3.4-5.49-2.09-43.78-16.66a7.41,7.41,0,0,1-3.95-3.52l-37.47-72.17,63.35,33.86a17.49,17.49,0,0,0,5.25,1.81l16.67,3,5,.89,10,1.78,5,.9,9.39,1.67,5,.89,9.37,1.66,7,1.25Z" transform="translate(-212.16 240.45)"/><polygon class="cls-1" points="121.7 104.56 47.5 75.54 71.94 56.31 35.96 38.68 38.16 34.18 81.3 55.32 57.48 74.06 123.52 99.89 121.7 104.56"/><path class="cls-1" d="M304.39-136.77c-8.91-43.08-.17-61.32.21-62.08l4.49,2.23S307-192.21,306-182.83c-.94,8.68-1.12,23.55,3.33,45Z" transform="translate(-212.16 240.45)"/><path class="cls-1" d="M318.87-130.9c-8.9-43-.2-62.87.17-63.7l4.56,2.08-2.28-1,2.29,1c0,.05-2.12,4.84-3.15,14.65-.95,9.07-1.14,24.42,3.32,46Z" transform="translate(-212.16 240.45)"/><path class="cls-1" d="M333.35-127.19c-8.89-43-.23-64.22.14-65.11l4.62,2-2.31-1,2.31,1s-2.13,5.21-3.16,15.4c-1,9.41-1.16,25.17,3.31,46.75Z" transform="translate(-212.16 240.45)"/><polygon class="cls-1" points="25.4 29.46 34.37 43.4 38.1 37.5 41.83 31.61 25.4 29.46"/><path class="cls-1" d="M410.66-92.41A68.37,68.37,0,0,1,362-112.57a68.36,68.36,0,0,1-20.15-48.66A68.4,68.4,0,0,1,362-209.89,68.36,68.36,0,0,1,410.66-230a68.36,68.36,0,0,1,48.67,20.15,68.4,68.4,0,0,1,20.15,48.66,68.36,68.36,0,0,1-20.15,48.66A68.37,68.37,0,0,1,410.66-92.41Zm0-130.78a62,62,0,0,0-62,62,62,62,0,0,0,62,62,62,62,0,0,0,62-62A62,62,0,0,0,410.66-223.19Z" transform="translate(-212.16 240.45)"/><polygon class="cls-1" points="198.51 27.59 153.69 104.16 198.51 104.16 243.32 104.16 198.51 27.59"/><polygon class="cls-1" points="198.51 131.06 153.69 54.5 198.51 54.5 243.32 54.5 198.51 131.06"/><path class="cls-1" d="M467.11-186.78l7-1.25,9.21-1.64,5-.88,9.39-1.67,5-.9,10-1.78,5-.89,16.67-3a17.49,17.49,0,0,0,5.25-1.81L603-234.43l-37.47,72.17a7.41,7.41,0,0,1-3.95,3.52l-43.77,16.66-5.5,2.09-8.92,3.4-5.48,2.09-9.35,3.55L483-128.84,468-123.12l-8.9,3.39,1.79,4.68,1.23-.47L563.36-154a12.46,12.46,0,0,0,6.62-5.9l38.53-74.2a4.26,4.26,0,0,0-.72-5,4.23,4.23,0,0,0-4.93-.9l-.06,0-65.51,35a12.62,12.62,0,0,1-3.76,1.3l-61.64,11-7.15,1.28Z" transform="translate(-212.16 240.45)"/><polygon class="cls-1" points="275.15 104.56 273.32 99.89 339.37 74.06 315.54 55.32 358.69 34.18 360.89 38.68 324.91 56.31 349.35 75.54 275.15 104.56"/><path class="cls-1" d="M516.77-136.77l-4.9-1c4.44-21.49,4.26-36.36,3.32-45-1-9.38-3.1-13.75-3.12-13.79l4.49-2.23C516.94-198.09,525.68-179.85,516.77-136.77Z" transform="translate(-212.16 240.45)"/><path class="cls-1" d="M502.29-130.9l-4.91-1c4.46-21.54,4.27-36.89,3.32-46-1-9.81-3.12-14.6-3.15-14.65l4.57-2.07C502.49-193.77,511.19-173.93,502.29-130.9Z" transform="translate(-212.16 240.45)"/><path class="cls-1" d="M487.81-127.19l-4.91-1c8.58-41.48.24-61.94.15-62.14l4.62-2C488-191.41,496.7-170.18,487.81-127.19Z" transform="translate(-212.16 240.45)"/><polygon class="cls-1" points="371.45 29.46 362.48 43.4 358.75 37.5 355.01 31.61 371.45 29.46"/><path class="cls-1" d="M447.83,108.57l-7.15-1.27-61.79-11a12.53,12.53,0,0,1-3.76-1.3L309.67,60l-.11-.05a4.3,4.3,0,0,0-5.65,5.87l38.53,74.2a12.46,12.46,0,0,0,6.62,5.9l101.5,38.63,1,.37,1.78-4.68-8.67-3.3-15.27-5.82-5.52-2.1-9.35-3.55L409,163.41l-8.91-3.4-5.5-2.09-43.77-16.66a7.46,7.46,0,0,1-4-3.52L309.41,65.57l63.36,33.86a17.44,17.44,0,0,0,5.24,1.81l16.68,3,5,.89,10,1.78,5,.9,9.38,1.67,5,.89,9.37,1.66,7,1.25Z" transform="translate(-212.16 240.45)"/><polygon class="cls-1" points="212.95 404.56 138.75 375.54 163.19 356.31 127.21 338.68 129.42 334.18 172.56 355.32 148.73 374.06 214.78 399.89 212.95 404.56"/><path class="cls-1" d="M395.64,163.23c-8.91-43.08-.16-61.32.21-62.08l4.49,2.23s-2.1,4.41-3.11,13.79c-.94,8.68-1.13,23.55,3.32,45Z" transform="translate(-212.16 240.45)"/><path class="cls-1" d="M410.12,169.1c-8.9-43-.2-62.87.18-63.7l4.56,2.08-2.28-1,2.28,1s-2.12,4.84-3.14,14.65c-1,9.07-1.15,24.42,3.31,46Z" transform="translate(-212.16 240.45)"/><path class="cls-1" d="M424.6,172.81c-8.89-43-.22-64.22.15-65.11l4.62,2-2.31-1,2.31,1s-2.13,5.21-3.17,15.4c-.95,9.41-1.15,25.17,3.31,46.75Z" transform="translate(-212.16 240.45)"/><polygon class="cls-1" points="116.66 329.46 125.62 343.4 129.35 337.5 133.09 331.61 116.66 329.46"/><path class="cls-1" d="M501.92,207.59a68.83,68.83,0,1,1,48.66-20.16A68.37,68.37,0,0,1,501.92,207.59Zm0-130.78a62,62,0,1,0,62,62A62,62,0,0,0,501.92,76.81Z" transform="translate(-212.16 240.45)"/><polygon class="cls-1" points="289.76 327.59 244.95 404.16 289.76 404.16 334.57 404.16 289.76 327.59"/><polygon class="cls-1" points="289.76 431.06 244.95 354.5 289.76 354.5 334.57 354.5 289.76 431.06"/><path class="cls-1" d="M558.36,113.22l7-1.25,9.22-1.64,5-.88,9.39-1.67,5-.9,10-1.78,5-.89,16.68-3a17.44,17.44,0,0,0,5.24-1.81l63.36-33.86-37.47,72.17a7.43,7.43,0,0,1-4,3.52l-43.77,16.66-5.5,2.09-8.91,3.4-5.49,2.09-9.35,3.55-5.52,2.11-15,5.72-8.9,3.39,1.78,4.68,1.24-.47L654.62,146a12.41,12.41,0,0,0,6.61-5.9l38.53-74.2A4.3,4.3,0,0,0,694.11,60l-.06,0L628.54,95a12.53,12.53,0,0,1-3.76,1.3l-61.64,11L556,108.55Z" transform="translate(-212.16 240.45)"/><polygon class="cls-1" points="366.4 404.56 364.58 399.89 430.62 374.06 406.8 355.32 449.94 334.18 452.14 338.68 416.16 356.31 440.6 375.54 366.4 404.56"/><path class="cls-1" d="M608,163.23l-4.91-1c4.45-21.49,4.26-36.36,3.32-45-1-9.38-3.09-13.75-3.11-13.79l4.49-2.23C608.19,101.91,616.94,120.15,608,163.23Z" transform="translate(-212.16 240.45)"/><path class="cls-1" d="M593.55,169.1l-4.91-1c4.46-21.54,4.26-36.89,3.31-46-1-9.81-3.12-14.6-3.14-14.65l4.56-2.07C593.75,106.23,602.45,126.07,593.55,169.1Z" transform="translate(-212.16 240.45)"/><path class="cls-1" d="M579.07,172.81l-4.91-1c8.58-41.48.23-61.94.15-62.14l4.61-2C579.29,108.59,588,129.82,579.07,172.81Z" transform="translate(-212.16 240.45)"/><polygon class="cls-1" points="462.7 329.46 453.74 343.4 450 337.5 446.27 331.61 462.7 329.46"/></svg>